<svg xmlns="http://www.w3.org/2000/svg" width="860" height="440" viewBox="0 0 860 440" role="img">
<rect width="860" height="440" fill="#FFFFFF" rx="8"/>
<rect x="0.5" y="0.5" width="859" height="439" fill="none" stroke="#E3E8EF" rx="8"/>
<text x="24" y="32" font-family="-apple-system, BlinkMacSystemFont, 'Segoe UI', 'Noto Sans SC', 'Microsoft YaHei', sans-serif" font-size="16" fill="#1F2933" text-anchor="start" font-weight="600">Synthesis time vs generated audio duration</text>
<text x="24" y="52" font-family="-apple-system, BlinkMacSystemFont, 'Segoe UI', 'Noto Sans SC', 'Microsoft YaHei', sans-serif" font-size="12" fill="#6B7280" text-anchor="start" font-weight="400">12th Gen Intel(R) Core(TM) i9-12900H · 3 repetitions · 4 CPU threads</text>
<rect x="24.0" y="63" width="11" height="11" rx="2" fill="#2E86AB"/><text x="40" y="72" font-family="-apple-system, BlinkMacSystemFont, 'Segoe UI', 'Noto Sans SC', 'Microsoft YaHei', sans-serif" font-size="12" fill="#6B7280" text-anchor="start" font-weight="400">Kokoro Multi-Lang v1.0</text><rect x="207.2" y="63" width="11" height="11" rx="2" fill="#E8871A"/><text x="223.19999999999993" y="72" font-family="-apple-system, BlinkMacSystemFont, 'Segoe UI', 'Noto Sans SC', 'Microsoft YaHei', sans-serif" font-size="12" fill="#6B7280" text-anchor="start" font-weight="400">MeloTTS Chinese-English</text><rect x="397.0" y="63" width="11" height="11" rx="2" fill="#B5446E"/><text x="412.9999999999999" y="72" font-family="-apple-system, BlinkMacSystemFont, 'Segoe UI', 'Noto Sans SC', 'Microsoft YaHei', sans-serif" font-size="12" fill="#6B7280" text-anchor="start" font-weight="400">MOSS-TTS-Nano 100M</text>
<line x1="72" y1="362" x2="832" y2="362" stroke="#E3E8EF"/>
<text x="64" y="366" font-family="-apple-system, BlinkMacSystemFont, 'Segoe UI', 'Noto Sans SC', 'Microsoft YaHei', sans-serif" font-size="11" fill="#6B7280" text-anchor="end" font-weight="400">0s</text>
<line x1="72" y1="294.5" x2="832" y2="294.5" stroke="#E3E8EF"/>
<text x="64" y="298.5" font-family="-apple-system, BlinkMacSystemFont, 'Segoe UI', 'Noto Sans SC', 'Microsoft YaHei', sans-serif" font-size="11" fill="#6B7280" text-anchor="end" font-weight="400">20s</text>
<line x1="72" y1="227" x2="832" y2="227" stroke="#E3E8EF"/>
<text x="64" y="231" font-family="-apple-system, BlinkMacSystemFont, 'Segoe UI', 'Noto Sans SC', 'Microsoft YaHei', sans-serif" font-size="11" fill="#6B7280" text-anchor="end" font-weight="400">40s</text>
<line x1="72" y1="159.5" x2="832" y2="159.5" stroke="#E3E8EF"/>
<text x="64" y="163.5" font-family="-apple-system, BlinkMacSystemFont, 'Segoe UI', 'Noto Sans SC', 'Microsoft YaHei', sans-serif" font-size="11" fill="#6B7280" text-anchor="end" font-weight="400">60s</text>
<line x1="72" y1="92" x2="832" y2="92" stroke="#E3E8EF"/>
<text x="64" y="96" font-family="-apple-system, BlinkMacSystemFont, 'Segoe UI', 'Noto Sans SC', 'Microsoft YaHei', sans-serif" font-size="11" fill="#6B7280" text-anchor="end" font-weight="400">80s</text>
<text x="72" y="380" font-family="-apple-system, BlinkMacSystemFont, 'Segoe UI', 'Noto Sans SC', 'Microsoft YaHei', sans-serif" font-size="11" fill="#6B7280" text-anchor="middle" font-weight="400">0s</text>
<text x="262" y="380" font-family="-apple-system, BlinkMacSystemFont, 'Segoe UI', 'Noto Sans SC', 'Microsoft YaHei', sans-serif" font-size="11" fill="#6B7280" text-anchor="middle" font-weight="400">20s</text>
<text x="452" y="380" font-family="-apple-system, BlinkMacSystemFont, 'Segoe UI', 'Noto Sans SC', 'Microsoft YaHei', sans-serif" font-size="11" fill="#6B7280" text-anchor="middle" font-weight="400">40s</text>
<text x="642" y="380" font-family="-apple-system, BlinkMacSystemFont, 'Segoe UI', 'Noto Sans SC', 'Microsoft YaHei', sans-serif" font-size="11" fill="#6B7280" text-anchor="middle" font-weight="400">60s</text>
<text x="832" y="380" font-family="-apple-system, BlinkMacSystemFont, 'Segoe UI', 'Noto Sans SC', 'Microsoft YaHei', sans-serif" font-size="11" fill="#6B7280" text-anchor="middle" font-weight="400">80s</text>
<text x="18" y="227" font-family="-apple-system, BlinkMacSystemFont, 'Segoe UI', 'Noto Sans SC', 'Microsoft YaHei', sans-serif" font-size="11.5" fill="#6B7280" text-anchor="middle" font-weight="400" transform="rotate(-90 18 227)">Synthesis time (seconds)</text>
<text x="452" y="398" font-family="-apple-system, BlinkMacSystemFont, 'Segoe UI', 'Noto Sans SC', 'Microsoft YaHei', sans-serif" font-size="11.5" fill="#6B7280" text-anchor="middle" font-weight="400">Audio duration (seconds)</text>
<line x1="72" y1="362" x2="832" y2="92" stroke="#D64545" stroke-width="1.4" stroke-dasharray="5 4"/>
<text x="826" y="84" font-family="-apple-system, BlinkMacSystemFont, 'Segoe UI', 'Noto Sans SC', 'Microsoft YaHei', sans-serif" font-size="11" fill="#D64545" text-anchor="end" font-weight="400">Real-time line (synthesis time = audio duration)</text>
<circle cx="122.1" cy="346.9" r="3.6" fill="#2E86AB" fill-opacity="0.75"/>
<circle cx="137.7" cy="340.9" r="3.6" fill="#2E86AB" fill-opacity="0.75"/>
<circle cx="129.6" cy="345.2" r="3.6" fill="#2E86AB" fill-opacity="0.75"/>
<circle cx="155.0" cy="337.7" r="3.6" fill="#2E86AB" fill-opacity="0.75"/>
<circle cx="157.3" cy="335.0" r="3.6" fill="#2E86AB" fill-opacity="0.75"/>
<circle cx="152.6" cy="340.7" r="3.6" fill="#2E86AB" fill-opacity="0.75"/>
<circle cx="138.6" cy="343.1" r="3.6" fill="#2E86AB" fill-opacity="0.75"/>
<circle cx="131.2" cy="345.3" r="3.6" fill="#2E86AB" fill-opacity="0.75"/>
<circle cx="172.4" cy="325.3" r="3.6" fill="#2E86AB" fill-opacity="0.75"/>
<circle cx="151.4" cy="341.1" r="3.6" fill="#2E86AB" fill-opacity="0.75"/>
<circle cx="141.8" cy="339.3" r="3.6" fill="#2E86AB" fill-opacity="0.75"/>
<circle cx="737.7" cy="170.0" r="3.6" fill="#2E86AB" fill-opacity="0.75"/>
<circle cx="112.5" cy="352.0" r="3.6" fill="#2E86AB" fill-opacity="0.75"/>
<circle cx="119.2" cy="350.1" r="3.6" fill="#2E86AB" fill-opacity="0.75"/>
<circle cx="114.2" cy="350.8" r="3.6" fill="#2E86AB" fill-opacity="0.75"/>
<circle cx="136.6" cy="345.9" r="3.6" fill="#2E86AB" fill-opacity="0.75"/>
<circle cx="136.5" cy="346.3" r="3.6" fill="#2E86AB" fill-opacity="0.75"/>
<circle cx="135.6" cy="345.8" r="3.6" fill="#2E86AB" fill-opacity="0.75"/>
<circle cx="131.6" cy="347.2" r="3.6" fill="#2E86AB" fill-opacity="0.75"/>
<circle cx="123.8" cy="349.4" r="3.6" fill="#2E86AB" fill-opacity="0.75"/>
<circle cx="156.5" cy="341.6" r="3.6" fill="#2E86AB" fill-opacity="0.75"/>
<circle cx="139.0" cy="345.3" r="3.6" fill="#2E86AB" fill-opacity="0.75"/>
<circle cx="136.7" cy="343.5" r="3.6" fill="#2E86AB" fill-opacity="0.75"/>
<circle cx="671.0" cy="216.3" r="3.6" fill="#2E86AB" fill-opacity="0.75"/>
<circle cx="143.5" cy="337.3" r="3.6" fill="#2E86AB" fill-opacity="0.75"/>
<circle cx="135.2" cy="340.2" r="3.6" fill="#2E86AB" fill-opacity="0.75"/>
<circle cx="128.7" cy="343.7" r="3.6" fill="#2E86AB" fill-opacity="0.75"/>
<circle cx="159.1" cy="331.4" r="3.6" fill="#2E86AB" fill-opacity="0.75"/>
<circle cx="170.5" cy="331.1" r="3.6" fill="#2E86AB" fill-opacity="0.75"/>
<circle cx="136.4" cy="341.1" r="3.6" fill="#2E86AB" fill-opacity="0.75"/>
<circle cx="132.2" cy="341.6" r="3.6" fill="#2E86AB" fill-opacity="0.75"/>
<circle cx="149.9" cy="335.5" r="3.6" fill="#2E86AB" fill-opacity="0.75"/>
<circle cx="169.7" cy="326.7" r="3.6" fill="#2E86AB" fill-opacity="0.75"/>
<circle cx="155.0" cy="335.3" r="3.6" fill="#2E86AB" fill-opacity="0.75"/>
<circle cx="138.0" cy="339.6" r="3.6" fill="#2E86AB" fill-opacity="0.75"/>
<circle cx="758.4" cy="133.2" r="3.6" fill="#2E86AB" fill-opacity="0.75"/>
<circle cx="111.3" cy="353.4" r="3.6" fill="#E8871A" fill-opacity="0.75"/>
<circle cx="119.2" cy="351.4" r="3.6" fill="#E8871A" fill-opacity="0.75"/>
<circle cx="115.9" cy="352.4" r="3.6" fill="#E8871A" fill-opacity="0.75"/>
<circle cx="133.2" cy="348.9" r="3.6" fill="#E8871A" fill-opacity="0.75"/>
<circle cx="136.0" cy="348.3" r="3.6" fill="#E8871A" fill-opacity="0.75"/>
<circle cx="137.1" cy="347.7" r="3.6" fill="#E8871A" fill-opacity="0.75"/>
<circle cx="124.9" cy="350.5" r="3.6" fill="#E8871A" fill-opacity="0.75"/>
<circle cx="120.2" cy="351.5" r="3.6" fill="#E8871A" fill-opacity="0.75"/>
<circle cx="133.3" cy="348.7" r="3.6" fill="#E8871A" fill-opacity="0.75"/>
<circle cx="137.2" cy="347.8" r="3.6" fill="#E8871A" fill-opacity="0.75"/>
<circle cx="127.1" cy="349.7" r="3.6" fill="#E8871A" fill-opacity="0.75"/>
<circle cx="591.5" cy="248.7" r="3.6" fill="#E8871A" fill-opacity="0.75"/>
<circle cx="110.9" cy="353.4" r="3.6" fill="#E8871A" fill-opacity="0.75"/>
<circle cx="125.4" cy="350.0" r="3.6" fill="#E8871A" fill-opacity="0.75"/>
<circle cx="132.6" cy="348.7" r="3.6" fill="#E8871A" fill-opacity="0.75"/>
<circle cx="144.0" cy="346.2" r="3.6" fill="#E8871A" fill-opacity="0.75"/>
<circle cx="147.3" cy="345.2" r="3.6" fill="#E8871A" fill-opacity="0.75"/>
<circle cx="150.2" cy="344.0" r="3.6" fill="#E8871A" fill-opacity="0.75"/>
<circle cx="137.2" cy="347.8" r="3.6" fill="#E8871A" fill-opacity="0.75"/>
<circle cx="127.9" cy="349.6" r="3.6" fill="#E8871A" fill-opacity="0.75"/>
<circle cx="146.2" cy="345.5" r="3.6" fill="#E8871A" fill-opacity="0.75"/>
<circle cx="143.8" cy="345.9" r="3.6" fill="#E8871A" fill-opacity="0.75"/>
<circle cx="138.4" cy="345.9" r="3.6" fill="#E8871A" fill-opacity="0.75"/>
<circle cx="771.9" cy="208.6" r="3.6" fill="#E8871A" fill-opacity="0.75"/>
<circle cx="130.3" cy="348.8" r="3.6" fill="#E8871A" fill-opacity="0.75"/>
<circle cx="116.3" cy="352.4" r="3.6" fill="#E8871A" fill-opacity="0.75"/>
<circle cx="111.6" cy="353.4" r="3.6" fill="#E8871A" fill-opacity="0.75"/>
<circle cx="128.3" cy="349.7" r="3.6" fill="#E8871A" fill-opacity="0.75"/>
<circle cx="131.3" cy="348.6" r="3.6" fill="#E8871A" fill-opacity="0.75"/>
<circle cx="117.7" cy="352.0" r="3.6" fill="#E8871A" fill-opacity="0.75"/>
<circle cx="120.9" cy="351.2" r="3.6" fill="#E8871A" fill-opacity="0.75"/>
<circle cx="125.6" cy="350.0" r="3.6" fill="#E8871A" fill-opacity="0.75"/>
<circle cx="144.0" cy="346.5" r="3.6" fill="#E8871A" fill-opacity="0.75"/>
<circle cx="132.0" cy="349.0" r="3.6" fill="#E8871A" fill-opacity="0.75"/>
<circle cx="123.5" cy="350.4" r="3.6" fill="#E8871A" fill-opacity="0.75"/>
<circle cx="566.2" cy="253.5" r="3.6" fill="#E8871A" fill-opacity="0.75"/>
<circle cx="110.8" cy="352.4" r="3.6" fill="#B5446E" fill-opacity="0.75"/>
<circle cx="129.0" cy="348.8" r="3.6" fill="#B5446E" fill-opacity="0.75"/>
<circle cx="198.2" cy="330.8" r="3.6" fill="#B5446E" fill-opacity="0.75"/>
<circle cx="137.4" cy="349.9" r="3.6" fill="#B5446E" fill-opacity="0.75"/>
<circle cx="141.9" cy="349.1" r="3.6" fill="#B5446E" fill-opacity="0.75"/>
<circle cx="141.9" cy="348.9" r="3.6" fill="#B5446E" fill-opacity="0.75"/>
<circle cx="131.3" cy="351.2" r="3.6" fill="#B5446E" fill-opacity="0.75"/>
<circle cx="126.0" cy="352.3" r="3.6" fill="#B5446E" fill-opacity="0.75"/>
<circle cx="165.5" cy="343.7" r="3.6" fill="#B5446E" fill-opacity="0.75"/>
<circle cx="135.1" cy="350.4" r="3.6" fill="#B5446E" fill-opacity="0.75"/>
<circle cx="136.6" cy="350.4" r="3.6" fill="#B5446E" fill-opacity="0.75"/>
<circle cx="652.6" cy="236.0" r="3.6" fill="#B5446E" fill-opacity="0.75"/>
<circle cx="110.8" cy="354.9" r="3.6" fill="#B5446E" fill-opacity="0.75"/>
<circle cx="129.0" cy="351.6" r="3.6" fill="#B5446E" fill-opacity="0.75"/>
<circle cx="110.8" cy="354.9" r="3.6" fill="#B5446E" fill-opacity="0.75"/>
<circle cx="282.5" cy="313.8" r="3.6" fill="#B5446E" fill-opacity="0.75"/>
<circle cx="158.6" cy="344.6" r="3.6" fill="#B5446E" fill-opacity="0.75"/>
<circle cx="137.4" cy="347.2" r="3.6" fill="#B5446E" fill-opacity="0.75"/>
<circle cx="132.0" cy="348.6" r="3.6" fill="#B5446E" fill-opacity="0.75"/>
<circle cx="130.5" cy="351.3" r="3.6" fill="#B5446E" fill-opacity="0.75"/>
<circle cx="147.2" cy="348.0" r="3.6" fill="#B5446E" fill-opacity="0.75"/>
<circle cx="148.8" cy="347.2" r="3.6" fill="#B5446E" fill-opacity="0.75"/>
<circle cx="171.6" cy="340.2" r="3.6" fill="#B5446E" fill-opacity="0.75"/>
<circle cx="789.4" cy="176.7" r="3.6" fill="#B5446E" fill-opacity="0.75"/>
<circle cx="141.9" cy="347.1" r="3.6" fill="#B5446E" fill-opacity="0.75"/>
<circle cx="132.0" cy="349.7" r="3.6" fill="#B5446E" fill-opacity="0.75"/>
<circle cx="133.6" cy="349.3" r="3.6" fill="#B5446E" fill-opacity="0.75"/>
<circle cx="132.0" cy="348.9" r="3.6" fill="#B5446E" fill-opacity="0.75"/>
<circle cx="151.8" cy="343.7" r="3.6" fill="#B5446E" fill-opacity="0.75"/>
<circle cx="129.0" cy="351.4" r="3.6" fill="#B5446E" fill-opacity="0.75"/>
<circle cx="137.4" cy="349.8" r="3.6" fill="#B5446E" fill-opacity="0.75"/>
<circle cx="197.4" cy="336.3" r="3.6" fill="#B5446E" fill-opacity="0.75"/>
<circle cx="169.3" cy="343.0" r="3.6" fill="#B5446E" fill-opacity="0.75"/>
<circle cx="164.0" cy="341.9" r="3.6" fill="#B5446E" fill-opacity="0.75"/>
<circle cx="151.8" cy="342.2" r="3.6" fill="#B5446E" fill-opacity="0.75"/>
<circle cx="778.8" cy="168.7" r="3.6" fill="#B5446E" fill-opacity="0.75"/>
<line x1="72" y1="362" x2="832" y2="362" stroke="#6B7280"/>
<text x="24" y="426" font-family="-apple-system, BlinkMacSystemFont, 'Segoe UI', 'Noto Sans SC', 'Microsoft YaHei', sans-serif" font-size="11.5" fill="#6B7280" text-anchor="start" font-weight="400">Every point is below the red real-time line: all three models are faster than playback on all 36 texts.</text>
</svg>
